<svg xmlns="http://www.w3.org/2000/svg" version="1.1" xmlns:xlink="http://www.w3.org/1999/xlink" width="98.02" height="112.32"><svg id="SvgjsSvg1038" data-name="Layer 2" xmlns="http://www.w3.org/2000/svg" viewBox="0 0 98.02 112.32">
  <defs>
    <style>
      .cls-1 {
        fill: #fff;
      }

      .cls-1, .cls-2 {
        stroke-width: 0px;
      }

      .cls-2 {
        fill: #0369a1;
      }
    </style>
  </defs>
  <g id="SvgjsG1037" data-name="Layer 1">
    <g>
      <path class="cls-2" d="M49.27,0c16.42.2,36.48,3.16,45.09,18.93,4.73,9.05,4.38,19.99,1.77,29.63-4.45,16.8-13.23,32.18-23.79,45.88-5.4,6.85-13.91,17.8-23.35,17.88-11.21.06-24.11-18.37-29.84-27.05-6.03-9.17-11.41-18.9-15.02-29.28C2,49.77.38,43.29.06,36.71-.54,26.03,3.6,14.87,12.77,8.81,23.07,1.83,37.04-.06,49.24,0h.03Z"></path>
      <g>
        <path class="cls-1" d="M15.09,60.82c.21-2.12,2.85-1.9,4.35-2.52.71-.14,1.33,0,1.7-.19.52-.24,1.04-1.14,1.08-1.73-.05-.92-.2-1.7-.09-2.69.1-2.09-.75-4.41-.88-6.54-.03-1.37.51-2.58.31-3.96-.16-2.01,0-4.38.07-6.36-.06-1.85-.36-3.76-.29-5.54.05-1.08.6-2.17.68-3.2.1-1.29-.23-3.5-.81-4.28-.6-1.31-3.78-.35-5.41-1.11-.85-.41-.92-1.73-.43-2.49.49-.7,1.3-.97,2.07-1.24.99-.46,2.22.22,3.27.45.91.19,1.86-.14,2.76,0,.39.04.82.08,1.2-.03.88-.27,1.27-1.13,2.13-.88,1.12.42,2.24.63,3.55.64,1.41.34,2.58-.63,3.97-.22,1.03.41,1.99-.21,3.02-.07,4.62,1.35,8.79,4.64,11.49,9,.78,1.3,1.04,2.66,1.24,4.03.36,1.32.59,3.04.6,4.21-.11.98.13,1.88.42,2.82.4,1.68-.41,3.67-.34,5.48.07,4.01-1.1,8.08-3.15,11.34-.82,1.01-1.51,2.47-2.25,3.42-.59.63-1.24.74-1.82,1.32-.58.54-1.16,1.61-1.9,1.93-.98.35-2,.09-2.92.69-1.51.93-3.59.76-5.3.34-1.73-.12-3.34.13-5.16.25-1.6.2-3.03-.62-4.7-.62-1.23.03-2.67.15-3.6.18-.82.07-1.65-.1-2.48.12-1.38.4-2.32-1.1-2.39-2.36v-.19ZM27.88,57.9c1.6.28,3.63,1.24,5.24.55,1.32-.81,2.4-.18,3.85-.33.78-.04,1.58.42,2.25-.26.39-.35.74-.9,1.07-1.42.3-.41.52-.98,1.02-.84.24.09.52-.05.97-.67.43-.58.93-1.05,1.22-1.64.45-.96.38-2.44,1.36-3.06.36-.26.84-.49,1.17-.77.86-.8-.05-1.74.24-2.89.29-1.28.06-2.5.08-3.72.18-1.27.66-2.59.35-3.9-.09-1.06,0-2.05-.5-2.83-.18-.78.45-1.4.22-2.45-.17-1.22-.94-1.99-1.12-2.87-.22-1.75-2.16-2.9-2.82-4.39-.41-1.29-2.08-1.26-2.83-2.04-.41-.47-.74-.79-1.42-.71-.5.01-.91-.38-1.3-.66-.54-.45-1.16-.49-2.03-.29-1.12.19-2.25.23-3.42.22-1.82.12-3.92-.45-5.6.25-.61.8.2,2.06.15,2.99.05.69-.47,1.42-.48,2,.09,1.38.18,2.74.23,4.21-.06.65-.31,1.33-.33,1.98.12,1.31.7,2.22.28,3.63-.1.91-.5,1.58-.17,2.29.53.77.27,1.47.21,2.46.33,4.68-.32,9.37-.41,14.04.06,1.48,1.37.91,2.38,1.09l.16.03Z"></path>
        <path class="cls-1" d="M69.21,62.64c-2.92.56-5.69-.81-8.34-1.77-.89-.11-1.68.61-2.49.98-.79.42-1.93.3-2.49-.4-.74-.86-.92-2.37-.84-3.56.11-.92.44-1.48-.32-2.27-.37-.51-.11-.96.37-1.38.5-.47.48-.82.39-1.4.09-1.47-.46-1.96-.43-3.21.08-2.12-.14-5.57-.24-6.92.08-.35.42-.77.41-1.17-.06-.68-.33-1.46-.14-2.2.1-.68.34-1.45.22-2.16-.08-.53-.57-.94-.53-1.37.04-.4.46-.7.48-1.12.04-.41-.19-.92-.14-1.38.06-.59.31-1.17.15-1.81-.13-.91-.63-1.85-.8-2.68-.06-.38.23-.64.52-.88.64-.43-.14-1.13-.39-1.6-.25-.44-.05-.77.12-1.17.08-.25-.03-.47-.19-.78-.46-.73.02-1.93-.29-2.68-.39-.25-1.3-.09-1.79-.23-.32-.02-.65.08-.89.02-.28-.1-.56-.32-.89-.35-.45,0-1.1.23-1.59.15-1.87-.09-3.18-2.69-1.54-3.92.61-.54,1.85-.5,2.7-.7.25-.17.34-.58.69-.72,1.32-.46,2.97.18,4.41.29.65.11,1.41-.09,1.94.21.45.27,1.21.67,1.79.98.38.22.76.49.99.86.34.67-.03,1.43.19,2.16.05.91-.41,1.78-.02,2.7.15.57-.09,1.16-.33,1.63-.2.4.12.83.28,1.22.29.65-.66,1.23-.62,1.74.06.4.53.61.49,1.12.03.68-.05,2.37.05,2.84.2.36.51.17.89-.12.76-.61,1.23-2.43,2.31-2.27.1,0,.29-.02.38-.03,6.13-3.15,13.55.39,16.98,6.03,1.17,2.09,1.22,4.53,1.62,6.85.19,1.39.88,2.69.59,4.11-.09.82-.32,1.64-.44,2.39-.02,1,.32,2.2-.18,3.2-1.48,3.81-3.87,9.26-8.35,9.93-1.56.15-3.03,2-4.53.89l-.16-.05ZM66.68,58.16c4.32,1.55,10.05-2.39,10.13-7.17.15-.96,1.32-1.86.55-2.8-.18-.74.31-1.42-.18-2.2-.02-.09-.07-.26-.09-.35-.14-.5.82-.87.89-1.26.04-.34-.67-.75-.65-1.21.72-4.18-3.13-8.84-6.73-9.95-.71-.22-.42.68-1.03.7-.38,0-.97-.13-1.37-.06-.68.11-1.29.61-2,.6-.5.03-.87-.21-1.31-.11-.4.11-1.02.95-1.43,1.24-.37.25-.67.04-.96.3-.38.45-.75,1.25-1.11,1.79-.56.77-.47,1.8-.81,2.67-.45.89-1.6,1.6-1.96,2.53.03.32,1.15-.19,1.18.29.1.96-.74,2.31-.95,3.47-.14.66.03,1.13.1,1.82.11,1.17.07,2.79,1.06,3.52.19.16.4.36.56.56.38.55.16,1.33.58,1.75,1.04.84,2.22,1.85,3.02,3,.28.33.57.75.92.94.45.28,1.01-.07,1.44-.05h.17Z"></path>
      </g>
    </g>
  </g>
</svg><style>@media (prefers-color-scheme: light) { :root { filter: none; } }
@media (prefers-color-scheme: dark) { :root { filter: none; } }
</style></svg>