<svg xmlns="http://www.w3.org/2000/svg" version="1.1" xmlns:xlink="http://www.w3.org/1999/xlink" width="612" height="612"><svg id="SvgjsSvg1003" data-name="Layer 1" xmlns="http://www.w3.org/2000/svg" viewBox="0 0 612 612">
  <defs>
    <style>
      .cls-1 {
        fill: #fff;
        stroke: #323232;
        stroke-miterlimit: 10;
        stroke-width: 3.08px;
      }

      .cls-2 {
        fill: #0c4a6e;
      }

      .cls-2, .cls-3 {
        stroke-width: 0px;
      }

      .cls-3 {
        fill: #0369a1;
      }
    </style>
  </defs>
  <circle class="cls-3" cx="306" cy="306" r="304"></circle>
  <g>
    <g>
      <path class="cls-2" d="M117.27,429.61c1.27-11.18,15.82-12.19,24.58-14.35,7.42-.97,12.13-.82,14.94-6.48,2.72-6.33,1.3-12.98,1.26-20.01.08-15.15-7.03-32.3-3.75-47.96,1.53-10.39-.45-20.62.4-31.61.23-4.33.47-8.02.46-12.17.05-12.59-2.89-28.01-.4-41,3.32-11.36,3.91-26.4-2.17-36.46-7.1-9.17-25.14-1.13-32.82-7.72-4.29-3.53-3.34-11.98,1.2-15.46,10.05-9.46,23.28-2.6,35.27-2.23,5.86-.13,11.23.49,15.97-.58,3.54-.77,6.8-2.55,10.37-3.21,5.39-1.18,11.02,1.32,17.28,1.83,5.93.51,12.8.36,18.44-.38,10.51-.79,21.07-.63,31.47-.08,18.27,5.37,35,14.45,48.71,28.03,9.38,10.62,18.25,22.61,23.58,36.03,3.62,11.88,4.51,22.27,4.78,34.02.57,8.49,4.19,15.74,3.22,25.01-3.3,19.07-1.7,38.46-7.45,57.16-5.85,17.22-15.81,32.71-26.84,46.89-3.77,3.92-7.87,6.1-11.56,9.62-2.87,2.51-5.89,6.55-9.52,8.47-5.29,2.64-10.68,2.39-16.15,4.31-4.46,1.51-10.27,4.06-15.84,4.46-5.73.68-10.7-.24-16.35-1.3-11.81-1.66-22.28,1.23-34.63.96-7.61.07-15.57-2.64-23.41-3.21-8.92-.27-16.67,1.09-25.01.66-10.81.71-25.82,3.45-26.05-12.75l.02-.5ZM191.89,412.76c8.95,1.19,20.32,5.76,29.29,3.25,3.23-.82,6.48-2.02,9.77-2.28,9.07-1.24,18.67,2.69,27.31-1.62,3.49-1.94,6.26-6.67,8.95-9.55,3.63-3.54,8.01-3.93,11.27-8.08,8.15-8.03,7.85-21.92,18.11-28.02,4.19-2.73,5.49-6.95,4.81-11.8-.44-4.23-.09-8.43.12-12.71-.69-14.04,3.49-29.06,1.62-42.81-2.15-8.93-2.8-13.01-1.48-21.54-.72-8.96-5.3-16.23-9.11-24.82-5.08-7.17-11.41-15.92-16.78-21.97-7.7-5.72-15.96-10.63-24.87-13.82-3.59-1.47-7.58-3.63-11.7-3.64-12.05,1.06-23.98-1.44-36.3.07-6.34.87-16.44.37-20.77,2.52-3.61,1.85-2.9,6.44-2.21,9.89,1.43,7.73-1.21,15.03-1.59,22.31.69,7.83,1.59,16.73.27,25.19-1.25,7.36,1.38,14.27,1.25,21.46-.05,4.06-1.99,8.82-1.75,12.42.69,7.35,1.84,14.65.86,23.12.25,7.68,1.64,15.89,1.56,23.8.24,16.8-5.03,33.64-3.42,50.22.7,7.41,6.86,8.15,14.27,8.34l.51.05ZM197.51,198.88c.21-.78-2.47-.89-1.98.13.35,1,1.48.88,1.87.13l.11-.27ZM216.3,197.12c-2.35.46-1.22,5.07,1.12,3.43,1.01-.73.63-3.35-.73-3.43h-.39Z"></path>
      <path class="cls-2" d="M427.35,446.83c-8.14-.82-16.7-.91-24.7-2.84-10-2.03-19.89-8.59-30.13-5.97-7.75,2.09-17.58,5.9-23.34-2-4.9-5.94-4.04-14.8-4.86-21.4-2.59-10.42,2.29-20.02,1.88-30.32-2.32-14.82-1.69-30.99-2.26-45.96-.17-10.47,1.56-20.9,1.11-32.14-.25-5.27-.35-10.46-.51-15.69-.06-6.4,1.6-13.93.38-20.95-2.08-9.77-1.77-20.55-1.96-29.99-1.59-6.13-1.39-13.63-3-19.97-4.18-12.27-19.59-7.01-29.46-10.36-8.89-1.01-17.39-10.96-9.76-18.7,11.97-9.67,27.63-11.63,42.62-9.38,7.67.76,15.47,2.1,22.03,6.5,14.28,9.27,7.48,28.16,8.51,42.26-.32,5.01-4.44,39.88,5.3,36.81,1.9-.93,3.65-2.79,5.38-4.17,5.42-4.75,11.5-7.01,18.45-9.29,5.52-1.86,11.33-3.88,18.13-3.7,11.64.49,24.69,1.1,34.5,6.2,8.89,4.77,16.7,11.69,24.38,18.14,16.84,13.57,22.15,35.51,24.44,56.19,2.62,11.9,3,23.15,1.3,34.96-.79,8.21-.69,15.94-3.82,23.75-3.08,7.53-6.89,14.74-10.64,21.98-11.33,23.01-39.09,35.99-63.49,36.08l-.49-.03ZM310.48,205.61c.2-.04,1.9.1,2.1-.1.2-.13.07-1,.11-1.5.19-1.01-2.24,1.68-2.24,1.53l.04.06ZM412.28,418.63c3.12.84,6.42,1.43,9.09,2.81,2.35,1.68,4.26,1.04,6.97.22,12.94-4.59,27.29-11.57,36.17-22.23,3-4.59,2.75-9.56,4.13-15.54,1.02-6.28,2.62-10.81,6.59-15.8,1.78-2.24-2.68-3.63-3.13-5.48-.19-1.93,1.18-4.25,1.56-6.13.8-2.82-2.24-6.06-3.12-8.5.22-2.49,5.59-4.55,7.02-6.27-.1-1.22-5.05-4.44-5.33-5.79-.4-1.19.14-2.82.9-3.71,6.38-15.69-23.17-51.92-39.16-53.91-3.74-.93-2.38,1.77-2.66,4.04-.05.7-.23.91-.68.9-2.33-.14-7.1-1.15-9.05-1.14-3.2-.03-6.98,3.53-9.62,4.11-2.64.29-5.59-.29-8.13-1.56-.65-.29-1.06-.44-1.43-.23-1.45,1.19-8.49,8.6-9.41,9.15-.97-.05-1.81-.73-2.85-1.09-.54-.17-.91-.06-1.16.32-2.06,6.41-8.4,10.72-9.44,17.5-.44,1.95.39,4.72-.27,6.67-1.68,3.36-4.42,6.18-7.05,8.99-2.45,2.55-4.91,4.93-6.52,7.98.04,1.34,2.97-.35,3.87-.77,5.83-3,4.21,5.91,3.12,9.01-1.03,2.91-3.51,5.59-4.34,8.42-1.7,8.16.85,16.56,1.65,24.69.59,2.48.61,5.58,2.41,7.53,1.2,1.21,3.99,2.25,5.27,3.58,1.22,1.57,2.05,4.37,1.86,6.31-.22,1.4-.9,1.89.13,3.19,1.51,2.2,5.69,4.5,7.98,6.16,5.75,5.06,10.77,13.48,16.67,18.35,1.23.51,2.62-.4,3.73-.97,1.25-.7,2.61-.88,3.89-.85l.34.05ZM369.72,322.65c-1.88.25-1.69,3.99.24,3.74,2.29.07,2.36-3.32.2-3.74h-.44ZM376.09,428.14c1.22.3,2.15-.32,1.47-1.63-1.31-.69-1.92.26-1.63,1.47l.16.16ZM410.1,431.58c-.66-.3-4.14,1.41-3.22,2.17.53.14,2.49.1,3.09.03.62-.06.53-1.53.37-2.02l-.25-.17ZM410.36,274.72c-.04-.16.1-1.59-.1-1.75-.13-.17-1-.06-1.5-.09-1.01-.17,1.67,1.86,1.53,1.87l.06-.03ZM427.32,271.02c-1.35.08-1.73,2.69-.73,3.43,2.35,1.6,3.46-2.84,1.12-3.43h-.39ZM450.52,276.63c-1.87.26-1.62,3.98.2,3.74,1.85.14,2.01-3.29.2-3.74h-.39ZM475.56,424.49c.34-.25,2.08-1.4,2.08-1.93-.03-.5-1.65-1.77-2.21-1.81-.57.04-1.86,1.31-1.9,1.81,0,.53,1.44,1.69,1.75,1.93h.29ZM483.14,322.58c-.78-.21-.89,2.47.13,1.98,1.01-.35.88-1.48.13-1.87l-.27-.11Z"></path>
    </g>
    <g>
      <path class="cls-1" d="M105.44,414.44c1.27-11.18,15.82-12.19,24.58-14.35,7.42-.97,12.13-.82,14.94-6.48,2.72-6.33,1.3-12.98,1.26-20.01.08-15.15-7.03-32.3-3.75-47.96,1.53-10.39-.45-20.62.4-31.61.23-4.33.47-8.02.46-12.17.05-12.59-2.89-28.01-.4-41,3.32-11.36,3.91-26.4-2.17-36.46-7.1-9.17-25.14-1.13-32.82-7.72-4.29-3.53-3.34-11.98,1.2-15.46,10.05-9.46,23.28-2.6,35.27-2.23,5.86-.13,11.23.49,15.97-.58,3.54-.77,6.8-2.55,10.37-3.21,5.39-1.18,11.02,1.32,17.28,1.83,5.93.51,12.8.36,18.44-.38,10.51-.79,21.07-.63,31.47-.08,18.27,5.37,35,14.45,48.71,28.03,9.38,10.62,18.25,22.61,23.58,36.03,3.62,11.88,4.51,22.27,4.78,34.02.57,8.49,4.19,15.74,3.22,25.01-3.3,19.07-1.7,38.46-7.45,57.16-5.85,17.22-15.81,32.71-26.84,46.89-3.77,3.92-7.87,6.1-11.56,9.62-2.87,2.51-5.89,6.55-9.52,8.47-5.29,2.64-10.68,2.39-16.15,4.31-4.46,1.51-10.27,4.06-15.84,4.46-5.73.68-10.7-.24-16.35-1.3-11.81-1.66-22.28,1.23-34.63.96-7.61.07-15.57-2.64-23.41-3.21-8.92-.27-16.67,1.09-25.01.66-10.81.71-25.82,3.45-26.05-12.75l.02-.5ZM180.07,397.59c8.95,1.19,20.32,5.76,29.29,3.25,3.23-.82,6.48-2.02,9.77-2.28,9.07-1.24,18.67,2.69,27.31-1.62,3.49-1.94,6.26-6.67,8.95-9.55,3.63-3.54,8.01-3.93,11.27-8.08,8.15-8.03,7.85-21.92,18.11-28.02,4.19-2.73,5.49-6.95,4.81-11.8-.44-4.23-.09-8.43.12-12.71-.69-14.04,3.49-29.06,1.62-42.81-2.15-8.93-2.8-13.01-1.48-21.54-.72-8.96-5.3-16.23-9.11-24.82-5.08-7.17-11.41-15.92-16.78-21.97-7.7-5.72-15.96-10.63-24.87-13.82-3.59-1.47-7.58-3.63-11.7-3.64-12.05,1.06-23.98-1.44-36.3.07-6.34.87-16.44.37-20.77,2.52-3.61,1.85-2.9,6.44-2.21,9.89,1.43,7.73-1.21,15.03-1.59,22.31.69,7.83,1.59,16.73.27,25.19-1.25,7.36,1.38,14.27,1.25,21.46-.05,4.06-1.99,8.82-1.75,12.42.69,7.35,1.84,14.65.86,23.12.25,7.68,1.64,15.89,1.56,23.8.24,16.8-5.03,33.64-3.42,50.22.7,7.41,6.86,8.15,14.27,8.34l.51.05ZM185.68,183.71c.21-.78-2.47-.89-1.98.13.35,1,1.48.88,1.87.13l.11-.27ZM204.48,181.95c-2.35.46-1.22,5.07,1.12,3.43,1.01-.73.63-3.35-.73-3.43h-.39Z"></path>
      <path class="cls-1" d="M415.52,431.67c-8.14-.82-16.7-.91-24.7-2.84-10-2.03-19.89-8.59-30.13-5.97-7.75,2.09-17.58,5.9-23.34-2-4.9-5.94-4.04-14.8-4.86-21.4-2.59-10.42,2.29-20.02,1.88-30.32-2.32-14.82-1.69-30.99-2.26-45.96-.17-10.47,1.56-20.9,1.11-32.14-.25-5.27-.35-10.46-.51-15.69-.06-6.4,1.6-13.93.38-20.95-2.08-9.77-1.77-20.55-1.96-29.99-1.59-6.13-1.39-13.63-3-19.97-4.18-12.27-19.59-7.01-29.46-10.36-8.89-1.01-17.39-10.96-9.76-18.7,11.97-9.67,27.63-11.63,42.62-9.38,7.67.76,15.47,2.1,22.03,6.5,14.28,9.27,7.48,28.16,8.51,42.26-.32,5.01-4.44,39.88,5.3,36.81,1.9-.93,3.65-2.79,5.38-4.17,5.42-4.75,11.5-7.01,18.45-9.29,5.52-1.86,11.33-3.88,18.13-3.7,11.64.49,24.69,1.1,34.5,6.2,8.89,4.77,16.7,11.69,24.38,18.14,16.84,13.57,22.15,35.51,24.44,56.19,2.62,11.9,3,23.15,1.3,34.96-.79,8.21-.69,15.94-3.82,23.75-3.08,7.53-6.89,14.74-10.64,21.98-11.33,23.01-39.09,35.99-63.49,36.08l-.49-.03ZM298.65,190.44c.2-.04,1.9.1,2.1-.1.2-.13.07-1,.11-1.5.19-1.01-2.24,1.68-2.24,1.53l.04.06ZM400.46,403.46c3.12.84,6.42,1.43,9.09,2.81,2.35,1.68,4.26,1.04,6.97.22,12.94-4.59,27.29-11.57,36.17-22.23,3-4.59,2.75-9.56,4.13-15.54,1.02-6.28,2.62-10.81,6.59-15.8,1.78-2.24-2.68-3.63-3.13-5.48-.19-1.93,1.18-4.25,1.56-6.13.8-2.82-2.24-6.06-3.12-8.5.22-2.49,5.59-4.55,7.02-6.27-.1-1.22-5.05-4.44-5.33-5.79-.4-1.19.14-2.82.9-3.71,6.38-15.69-23.17-51.92-39.16-53.91-3.74-.93-2.38,1.77-2.66,4.04-.05.7-.23.91-.68.9-2.33-.14-7.1-1.15-9.05-1.14-3.2-.03-6.98,3.53-9.62,4.11-2.64.29-5.59-.29-8.13-1.56-.65-.29-1.06-.44-1.43-.23-1.45,1.19-8.49,8.6-9.41,9.15-.97-.05-1.81-.73-2.85-1.09-.54-.17-.91-.06-1.16.32-2.06,6.41-8.4,10.72-9.44,17.5-.44,1.95.39,4.72-.27,6.67-1.68,3.36-4.42,6.18-7.05,8.99-2.45,2.55-4.91,4.93-6.52,7.98.04,1.34,2.97-.35,3.87-.77,5.83-3,4.21,5.91,3.12,9.01-1.03,2.91-3.51,5.59-4.34,8.42-1.7,8.16.85,16.56,1.65,24.69.59,2.48.61,5.58,2.41,7.53,1.2,1.21,3.99,2.25,5.27,3.58,1.22,1.57,2.05,4.37,1.86,6.31-.22,1.4-.9,1.89.13,3.19,1.51,2.2,5.69,4.5,7.98,6.16,5.75,5.06,10.77,13.48,16.67,18.35,1.23.51,2.62-.4,3.73-.97,1.25-.7,2.61-.88,3.89-.85l.34.05ZM357.89,307.48c-1.88.25-1.69,3.99.24,3.74,2.29.07,2.36-3.32.2-3.74h-.44ZM364.26,412.97c1.22.3,2.15-.32,1.47-1.63-1.31-.69-1.92.26-1.63,1.47l.16.16ZM398.27,416.42c-.66-.3-4.14,1.41-3.22,2.17.53.14,2.49.1,3.09.03.62-.06.53-1.53.37-2.02l-.25-.17ZM398.53,259.56c-.04-.16.1-1.59-.1-1.75-.13-.17-1-.06-1.5-.09-1.01-.17,1.67,1.86,1.53,1.87l.06-.03ZM415.5,255.85c-1.35.08-1.73,2.69-.73,3.43,2.35,1.6,3.46-2.84,1.12-3.43h-.39ZM438.7,261.46c-1.87.26-1.62,3.98.2,3.74,1.85.14,2.01-3.29.2-3.74h-.39ZM463.73,409.32c.34-.25,2.08-1.4,2.08-1.93-.03-.5-1.65-1.77-2.21-1.81-.57.04-1.86,1.31-1.9,1.81,0,.53,1.44,1.69,1.75,1.93h.29ZM471.31,307.41c-.78-.21-.89,2.47.13,1.98,1.01-.35.88-1.48.13-1.87l-.27-.11Z"></path>
    </g>
  </g>
</svg><style>@media (prefers-color-scheme: light) { :root { filter: none; } }
@media (prefers-color-scheme: dark) { :root { filter: none; } }
</style></svg>