<?xml version="1.0" encoding="UTF-8"?>
<svg id="Layer_2" data-name="Layer 2" xmlns="http://www.w3.org/2000/svg" viewBox="0 0 379.14 54.13">
  <defs>
    <style>
      .cls-1 {
        fill: #fff;
        stroke: #fff;
        stroke-miterlimit: 10;
      }
    </style>
  </defs>
  <g id="Layer_1-2" data-name="Layer 1">
    <g>
      <path class="cls-1" d="M.5,47.43c0-.62.14-1.09.43-1.4.29-.31.65-.53,1.08-.65.43-.12.88-.18,1.33-.18s.88-.05,1.26-.14c.05-.05.23-.18.54-.4.31-.22.49-.35.54-.4h.36c.38,0,.71.07.97.22.26.14.56.34.9.58-.1-.14-.14-.41-.14-.79s.05-.62.14-.72c.05-.1.23-.17.54-.22.31-.05.49-.1.54-.14v-.14s.01-.08.04-.11c.02-.02.04-.06.04-.11-.05,0-.07-.02-.07-.07v-.29c0-.09-.11-.23-.32-.4-.22-.17-.35-.3-.4-.4,0-.05.06-.17.18-.36.12-.19.18-.31.18-.36v-.22c0-.1.01-.17.04-.22.02-.05.04-.1.04-.14,0-1.44-.19-2.96-.58-4.57-.38-1.61-.58-3.16-.58-4.64,0-.14.11-.35.32-.61.22-.26.35-.49.4-.68v-.36s-.05-.17-.14-.36c-.1-.19-.17-.31-.22-.36v-5.54s.12-.16.22-.32c.1-.17.14-.3.14-.4s-.06-.41-.18-.94c-.12-.53-.18-.84-.18-.94,0-.14-.01-.41-.04-.79-.02-.38-.04-.79-.04-1.22s.01-.84.04-1.22c.02-.38.04-.65.04-.79-.29-.33-.43-.72-.43-1.15.24-.62.43-1.14.58-1.55.14-.41.28-.78.4-1.12.12-.34.18-.55.18-.65v-.14c0-.14-.04-.5-.11-1.08-.07-.58-.17-1.19-.29-1.84-.12-.65-.28-1.22-.47-1.73-.19-.5-.38-.76-.58-.76H1.65c-.53,0-.85-.22-.97-.65-.12-.43-.18-.84-.18-1.22,0-.29.1-.72.29-1.3.19-.58.48-.86.86-.86.05,0,.17.06.36.18.19.12.31.18.36.18.1-.05.28-.23.54-.54.26-.31.44-.49.54-.54h.22c.1,0,.17-.01.22-.04.05-.02.1-.04.14-.04.58,0,1.2.19,1.87.58.67.38,1.27.58,1.8.58.38,0,.64-.07.76-.22.12-.14.44-.22.97-.22.43,0,.83.03,1.19.07.36.05.68.29.97.72.14-.38.43-.8.86-1.26.43-.46.82-.68,1.15-.68.48,0,.82.2,1.01.61.19.41.48.61.86.61.29,0,.55-.07.79-.22.24-.14.53-.22.86-.22.43,0,.82.07,1.15.22.34.14.72.22,1.15.22s.78-.05,1.04-.14c.26-.1.52-.43.76-1.01.1.29.46.55,1.08.79.62.24,1.06.36,1.3.36.34,0,.56-.13.68-.4.12-.26.37-.4.76-.4.77,0,1.38.19,1.84.58.46.38,1.02.7,1.69.94.1.05.29.06.58.04.29-.02.48-.04.58-.04.05.05.17.14.36.29.19.14.38.3.58.47.19.17.37.32.54.47.17.14.28.24.32.29.1.05.23.11.4.18.17.07.28.13.32.18.67.14,1.45.66,2.34,1.55.89.89,1.74,1.9,2.56,3.02.82,1.13,1.54,2.26,2.16,3.38.62,1.13.98,2.03,1.08,2.7,0,.05-.05.18-.14.4-.1.22-.17.35-.22.4v.22c0,.29.13.43.4.43s.4.19.4.58c0,.29-.07.54-.22.76-.14.22-.22.47-.22.76v.22s.18.16.4.32c.22.17.32.3.32.4s-.12.34-.36.72c-.24.38-.36.62-.36.72.05.14.23.47.54.97.31.5.52.8.61.9v.14c0,1.01-.13,2.04-.4,3.1-.26,1.06-.4,2.06-.4,3.02,0,.29.06.58.18.86.12.29.18.58.18.86v.14c-.53.86-.78,1.64-.76,2.34.02.7-.08,1.52-.32,2.48,0,.1-.08.3-.25.61-.17.31-.36.67-.58,1.08-.22.41-.42.79-.61,1.15-.19.36-.34.64-.43.83-.05.1-.11.34-.18.72-.07.38-.13.62-.18.72,0,.05-.11.12-.32.22-.22.1-.35.17-.4.22-.24.14-.49.46-.76.94-.26.48-.54.97-.83,1.48s-.58.96-.86,1.37c-.29.41-.53.61-.72.61h-.14c-.1,0-.23-.05-.4-.14-.17-.1-.28-.17-.32-.22-.29.38-.53.78-.72,1.19-.19.41-.41.77-.65,1.08-.24.31-.53.56-.86.76-.34.19-.79.29-1.37.29h-.14c-.1-.05-.23-.16-.4-.32-.17-.17-.28-.3-.32-.4-.14.43-.49.78-1.04,1.04-.55.26-1.15.47-1.8.61-.65.14-1.28.22-1.91.22s-1.13-.02-1.51-.07c-.1,0-.35-.11-.76-.32-.41-.22-.66-.35-.76-.4h-.72c-.1.05-.34.18-.72.4-.38.22-.62.32-.72.32-.05,0-.18-.06-.4-.18-.22-.12-.35-.18-.4-.18h-.86c-.53,0-.95.07-1.26.22-.31.14-.71.22-1.19.22-.34,0-.66-.05-.97-.14-.31-.1-.59-.31-.83-.65-.24.05-.68.07-1.33.07s-1.07-.02-1.26-.07c-.05,0-.18-.05-.4-.14-.22-.1-.35-.17-.4-.22h-.14c-.29,0-.49.13-.61.4-.12.26-.35.4-.68.4s-.56-.13-.68-.4c-.12-.26-.32-.4-.61-.4h-.22c-.05.1-.12.28-.22.54-.1.26-.14.44-.14.54-.19-.24-.43-.41-.72-.5-.29-.1-.53-.29-.72-.58-.05.05-.11.12-.18.22-.07.1-.13.14-.18.14-.19.1-.56.23-1.12.4-.55.17-.92.28-1.12.32-.1-.33-.23-.61-.4-.83-.17-.22-.34-.42-.5-.61-.17-.19-.31-.41-.43-.65-.12-.24-.18-.58-.18-1.01ZM14.97,44.19c.91,0,1.85.14,2.81.43.96.29,1.87.43,2.74.43.24,0,.43-.06.58-.18.14-.12.29-.26.43-.43.14-.17.3-.31.47-.43.17-.12.4-.18.68-.18.43,0,.72.14.86.43s.41.43.79.43h.14s.07-.02.07-.07l.72-.72h.36s.17.18.36.4c.19.22.31.32.36.32.48.14.9.07,1.26-.22.36-.29.67-.65.94-1.08.26-.43.52-.88.76-1.33.24-.46.5-.8.79-1.04v1.15h.36c.05-.1.13-.25.25-.47.12-.22.26-.44.43-.68.17-.24.32-.46.47-.65.14-.19.24-.34.29-.43.05-.05.18-.11.4-.18s.35-.13.4-.18c.19-.38.3-.95.32-1.69.02-.74.16-1.31.4-1.69.09-.19.31-.35.65-.47.33-.12.68-.25,1.04-.4.36-.14.67-.29.94-.43.26-.14.37-.31.32-.5l-.72-.36s-.07-.24-.07-.58v-.79c0-.67.07-1.19.22-1.55.14-.36.22-.8.22-1.33,0-.24-.07-.46-.22-.65-.14-.19-.22-.41-.22-.65,0-.58.13-1.12.4-1.62.26-.5.4-1.07.4-1.69,0-.53-.07-.98-.22-1.37-.14-.38-.22-.79-.22-1.22v-.22s.02-.1.07-.14c0-.05.06-.18.18-.4.12-.22.18-.35.18-.4l-.72-.72c-.1-.05-.21-.02-.32.07-.12.1-.2.14-.25.14,0-.29.05-.47.14-.54.1-.07.2-.13.32-.18.12-.05.23-.11.32-.18.1-.07.14-.25.14-.54,0-.14-.01-.36-.04-.65-.02-.29-.06-.58-.11-.86s-.1-.56-.14-.83c-.05-.26-.07-.42-.07-.47-.1-.14-.21-.25-.32-.32-.12-.07-.24-.13-.36-.18-.12-.05-.23-.12-.32-.22-.1-.1-.14-.29-.14-.58v-.22s.12-.05.22-.14.14-.17.14-.22c0-.19-.22-.53-.65-1.01-.43-.48-.9-1.01-1.4-1.58s-.94-1.13-1.3-1.66c-.36-.53-.47-.96-.32-1.3l-2.95-.72c.1-.24.05-.52-.14-.83-.19-.31-.38-.54-.58-.68-.05.05-.12.11-.22.18-.1.07-.14.13-.14.18-.05.05-.05.08,0,.11.05.02.07.06.07.11-.53,0-1.02-.11-1.48-.32-.46-.22-.68-.68-.68-1.4-.05,0-.1.02-.14.07-.1.05-.35.18-.76.4-.41.22-.66.32-.76.32-.05.05-.1.07-.14.07h-.14c-.53,0-1-.07-1.4-.22-.41-.14-.88-.22-1.4-.22-1.39,0-2.71.08-3.96.25-1.25.17-2.59.21-4.03.11.24.24.38.49.43.76.05.26.07.54.07.83s.04.6.11.94c.07.34.25.72.54,1.15v.43c-.1.05-.29.22-.58.5-.29.29-.48.48-.58.58v.36c0,.29.06.47.18.54.12.07.3.11.54.11,0,.05.01.12.04.22.02.1.04.19.04.29-.05.05-.19.22-.43.5-.24.29-.36.48-.36.58s.12.29.36.58c.24.29.38.46.43.5v.22c0,.62-.13,1.27-.4,1.94-.26.67-.4,1.32-.4,1.94,0,.34.14.54.43.61.29.07.53.23.72.47-.34.38-.53.77-.58,1.15-.05.38-.08.78-.11,1.19-.02.41-.07.79-.14,1.15-.07.36-.3.68-.68.97.19.05.46.12.79.22.34.1.58.26.72.5l-.72.72s-.01.22-.04.5c-.02.29-.04.53-.04.72,0,.82.07,1.63.22,2.45s.22,1.63.22,2.45c0,1.54-.13,3.07-.4,4.61-.26,1.54-.4,3.07-.4,4.61v.54c0,.26.01.54.04.83.02.29.07.54.14.76.07.22.2.32.4.32h.14s.07-.02.07-.07c.1-.05.34-.16.72-.32.38-.17.62-.3.72-.4.29.19.43.41.43.65ZM16.05,3.3c.05-.09-.01-.14-.18-.14s-.23.05-.18.14c.05.1.11.14.18.14s.13-.05.18-.14ZM19.72,2.94c-.19,0-.29.12-.29.36s.1.36.29.36.29-.12.29-.36-.1-.36-.29-.36Z"/>
      <path class="cls-1" d="M47.8,46.5s.18-.11.4-.18c.22-.07.35-.13.4-.18v-.14c0-.33-.22-.53-.65-.58-.43-.05-.75-.07-.94-.07,0-.29.05-.6.14-.94.09-.33.19-.62.29-.86-.19.14-.43.07-.72-.22-.14-.14-.26-.31-.36-.5,0-.14-.01-.48-.04-1.01-.03-.53-.04-.86-.04-1.01,0-1.97.46-3.61,1.37-4.93.91-1.32,2.21-2.46,3.89-3.42.58-.33.94-.58,1.08-.72.14-.14.5-.26,1.08-.36.77-.1,1.55-.29,2.34-.58.79-.29,1.57-.58,2.34-.86.77-.29,1.55-.55,2.34-.79s1.6-.36,2.41-.36h.22s.23.13.54.25c.31.12.49.16.54.11.1,0,.35-.17.76-.5.41-.34.66-.53.76-.58.1-.05.3-.11.61-.18.31-.07.67-.14,1.08-.22.41-.07.79-.14,1.15-.22.36-.07.64-.11.83-.11.19-.05.6-.04,1.22.04.62.07,1.06.11,1.3.11,0-.67-.05-1.32-.14-1.94-.1-.62-.14-1.27-.14-1.94,0-.24.01-.42.04-.54.02-.12.13-.3.32-.54l-1.15-1.87c-.14.14-.26.14-.36,0-.48-.29-1.19-.55-2.12-.79-.94-.24-1.94-.43-3.02-.58s-2.12-.25-3.13-.32c-1.01-.07-1.8-.11-2.38-.11-.34,0-.82.01-1.44.04s-1.24.12-1.84.29c-.6.17-1.13.42-1.58.76s-.68.82-.68,1.44v.43c0,.1.06.4.18.9.12.5.18.8.18.9-.1.34-.28.71-.54,1.12-.26.41-.59.78-.97,1.12-.38.34-.78.62-1.19.86-.41.24-.78.36-1.12.36-.38,0-.79-.11-1.22-.32-.43-.22-.83-.48-1.19-.79-.36-.31-.65-.67-.86-1.08-.22-.41-.32-.83-.32-1.26,0-.05.06-.17.18-.36.12-.19.18-.31.18-.36v-.36c0-.1-.06-.35-.18-.76-.12-.41-.18-.66-.18-.76.05-.1.17-.28.36-.54.19-.26.31-.44.36-.54,1.39-2.45,3-4.12,4.82-5,1.82-.89,4.18-1.33,7.06-1.33,1.3,0,2.5.1,3.6.29,1.1.19,2.35.24,3.74.14.38.38.78.5,1.19.36.41-.14.88-.14,1.4,0,1.01.34,1.96.77,2.84,1.3.89.53,1.67,1.14,2.34,1.84.67.7,1.21,1.5,1.62,2.41.41.91.61,1.9.61,2.95l-.22.22c-.1.05-.17.1-.22.14v.36c0,.67.07,1.28.22,1.84.14.55.22,1.19.22,1.91v2.16c-.05.1-.12.23-.22.4-.1.17-.17.3-.22.4v.36s.13.17.25.36c.12.19.18.31.18.36s-.07.17-.22.36c-.14.19-.22.31-.22.36v1.15s.07.17.22.36c.14.19.22.31.22.36,0,.38-.13.82-.4,1.3-.26.48-.4.91-.4,1.3,0,.05.05.12.14.22.1.1.17.14.22.14l-.36.36c0,.1-.01.38-.04.86-.02.48-.04.84-.04,1.08v.68c0,.31.01.62.04.94s.04.59.04.83v.43c0,.1.05.31.14.65.1.34.22.67.36,1.01.14.34.3.64.47.9.17.26.32.4.47.4.29,0,.48-.07.58-.22.1-.14.31-.22.65-.22.48,0,.7.26.65.79.19,0,.35-.1.47-.29.12-.19.29-.41.5-.65s.52-.46.9-.65c.38-.19.94-.29,1.66-.29.43,0,.79.03,1.08.07.29.05.48.41.58,1.08,0,.05-.06.17-.18.36-.12.19-.18.31-.18.36-.14.72-.22,1.29-.22,1.69s-.07.76-.22,1.04c-.14.29-.4.55-.76.79-.36.24-.95.53-1.76.86l-.14.07h-.14s-.07-.02-.07-.07c-.05,0-.12-.05-.22-.14-.1-.1-.14-.17-.14-.22-.29.48-.5.79-.65.94-.14.14-.41.22-.79.22-1.54,0-2.92-.42-4.14-1.26-1.22-.84-1.96-2.03-2.2-3.56h-.29s-.07-.02-.07-.07c-.38,0-.58.11-.58.32s-.17.49-.5.83c0,.05-.02.07-.07.07h-.14l-.22-.07-.14-.14-.22-.22c-.43,0-.78.12-1.04.36-.26.24-.53.49-.79.76s-.56.52-.9.76c-.34.24-.77.36-1.3.36-.05,0-.17-.06-.36-.18-.19-.12-.31-.18-.36-.18-.82,0-1.37.19-1.66.58-.29.38-.72.82-1.3,1.3-1.3-.1-2.54-.06-3.74.11-1.2.17-2.42.25-3.67.25-.29,0-.88-.1-1.76-.29-.89-.19-1.8-.47-2.74-.83-.94-.36-1.78-.77-2.52-1.22-.75-.46-1.12-.97-1.12-1.55v-.22ZM48.96,26.55c-.05.1-.12.14-.22.14s-.14-.05-.14-.14c-.05-.1,0-.14.14-.14s.22.05.22.14ZM50.68,40.95c0,.34.16.75.47,1.22s.68.94,1.12,1.37.89.83,1.37,1.19c.48.36.89.59,1.22.68h2.16c.77,0,1.5-.06,2.2-.18.7-.12,1.4-.18,2.12-.18h.14s.12.05.22.14c.1.1.14.17.14.22.19-.53.43-.89.72-1.08.1.05.35.16.76.32.41.17.66.3.76.4h.14c.1,0,.56-.23,1.4-.68.84-.46,1.74-.96,2.7-1.51.96-.55,2.25-1.31,3.89-2.27v-1.3c0-.53-.13-1-.4-1.4-.26-.41-.4-.8-.4-1.19,0-.24.13-.42.4-.54.26-.12.4-.35.4-.68,0-.82-.07-1.54-.22-2.16-.14-.62-.7-1.03-1.66-1.22-.14,0-.47.04-.97.11s-1.04.18-1.62.32-1.14.29-1.69.43c-.55.14-.97.24-1.26.29-.96.24-2,.6-3.13,1.08-1.13.48-2.17.72-3.13.72-.1,0-.23-.04-.4-.11-.17-.07-.28-.16-.32-.25-.53.38-1.19.78-1.98,1.19-.79.41-1.57.86-2.34,1.37-.77.5-1.43,1.06-1.98,1.66-.55.6-.83,1.29-.83,2.05ZM71.42,39.51c.24,0,.36.12.36.36s-.12.36-.36.36c-.19,0-.29-.12-.29-.36s.1-.36.29-.36ZM76.24,48.37c-.19,0-.29.12-.29.36s.1.36.29.36.29-.12.29-.36-.1-.36-.29-.36ZM77.39,41.39c.19,0,.29.12.29.36s-.1.36-.29.36c-.24,0-.36-.12-.36-.36s.12-.36.36-.36Z"/>
      <path class="cls-1" d="M101.01,41.75s.04-.17.11-.36c.07-.19.16-.4.25-.61.1-.22.18-.41.25-.58.07-.17.11-.28.11-.32v-.22c0-.72-.1-1.18-.29-1.37-.19-.19-.46-.53-.79-1.01-.05,0-.07-.02-.07-.07v-.14c0-.29.14-.49.43-.61.29-.12.43-.35.43-.68s-.14-.5-.43-.5-.43-.12-.43-.36v-.14s.02-.07.07-.07c.05-.1.16-.23.32-.4.17-.17.3-.28.4-.32-.19-.77-.3-1.43-.32-1.98-.03-.55-.04-1.21-.04-1.98,0-.96.19-2,.58-3.13.38-1.13.58-2.03.58-2.7v-.22c-.53-.1-1.03-.23-1.51-.4-.48-.17-.98-.25-1.51-.25v.79c-.53,0-.96-.22-1.3-.65-.34-.43-.82-.65-1.44-.65-.53,0-.88.14-1.04.43s-.49.43-.97.43c-.29,0-.68-.17-1.19-.5-.5-.33-.85-.55-1.04-.65,0,.1-.05.28-.14.54-.1.26-.17.44-.22.54,0,.05-.03.07-.07.07h-.14l-.14-.07c-.86-.58-1.64-1.16-2.34-1.76-.7-.6-1.04-1.55-1.04-2.84,0-.1.01-.25.04-.47.02-.22.04-.37.04-.47.14-.1.5-.34,1.08-.72.58-.38.94-.62,1.08-.72.1-.1.24-.18.43-.25.19-.07.31-.11.36-.11l.36.36s.22.05.5.14c.29.1.48.17.58.22h.22c.34,0,.56-.07.68-.22.12-.14.44-.22.97-.22.43,0,.8.07,1.12.22.31.14.68.22,1.12.22.33,0,.66-.07.97-.22.31-.14.66-.22,1.04-.22.05,0,.08.01.11.04.02.03.08.04.18.04h.22c.1,0,.29.06.58.18.29.12.48.18.58.18s.28-.05.54-.14c.26-.1.44-.17.54-.22,0-.1.01-.25.04-.47s.04-.37.04-.47c0-.53-.13-.86-.4-1.01-.26-.14-.4-.41-.4-.79,0-.91.06-1.9.18-2.95.12-1.06.3-1.99.54-2.81v-.22c0-.38-.06-.72-.18-1.01-.12-.29-.18-.65-.18-1.08,0-.86.29-1.63.86-2.3.58-.67,1.32-1.01,2.23-1.01.05,0,.1.01.14.04.05.03.12.04.22.04h.22s.18.06.4.18c.22.12.35.18.4.18s.17-.06.36-.18c.19-.12.31-.18.36-.18.19,0,.47.16.83.47.36.31.73.66,1.12,1.04.38.38.72.78,1.01,1.19.29.41.43.68.43.83l-.07.14c-.05.1-.17.35-.36.76-.19.41-.31.66-.36.76h.86c0,.53-.08,1-.25,1.4-.17.41-.25.85-.25,1.33v.22s.05.16.14.32c.1.17.17.3.22.4l-.72.36v5.18c.14-.1.5-.28,1.08-.54.58-.26.96-.44,1.15-.54h.36c.24.1.62.22,1.15.36.53.14,1.08.28,1.66.4.58.12,1.12.22,1.62.29s.88.08,1.12.04c.05,0,.17-.06.36-.18.19-.12.38-.24.58-.36.19-.12.37-.24.54-.36.17-.12.28-.18.32-.18h.07s.07-.01.07-.04.02-.04.07-.04l.14.07c.58.24,1.21.46,1.91.65.7.19,1.34.43,1.94.72.6.29,1.09.68,1.48,1.19.38.5.58,1.19.58,2.05,0,.34-.17.58-.5.72-.34.14-.72.25-1.15.32-.43.07-.84.12-1.22.14-.38.02-.65.06-.79.11-.1.05-.29.13-.58.25-.29.12-.59.25-.9.4-.31.14-.61.3-.9.47-.29.17-.48.28-.58.32,0-.05-.05-.12-.14-.22-.1-.1-.17-.14-.22-.14-.19-.09-.47-.24-.83-.43-.36-.19-.56-.29-.61-.29-.24,0-.54.19-.9.58-.36.38-.76.58-1.19.58-.05,0-.13-.01-.25-.04-.12-.02-.21-.04-.25-.04l.36-.36c-.34-.48-.77-.72-1.3-.72-.29,0-.72.03-1.3.07-.58.05-1.13.14-1.66.29-.53.14-1,.36-1.4.65-.41.29-.61.67-.61,1.15,0,.1.05.35.14.76.1.41.17.66.22.76v.72c0,.14-.02.4-.07.76-.05.36-.08.73-.11,1.12-.03.38-.06.76-.11,1.12-.05.36-.07.61-.07.76.14.14.25.48.32,1.01s.14,1.14.22,1.84c.07.7.14,1.39.22,2.09.07.7.18,1.26.32,1.69v.36c0,.53-.13,1.01-.4,1.44-.26.43-.4.98-.4,1.66,0,2.5.62,4.78,1.87,6.84h.36c.1,0,.29-.05.58-.14.29-.1.48-.17.58-.22h.36s.05.12.14.22c.05.05.12.1.22.14,0,.05.02.07.07.07h.14c.33,0,.74-.17,1.22-.5.48-.33.96-.74,1.44-1.22s.9-.97,1.26-1.48.59-.92.68-1.26c.05-.24.07-.48.07-.72v-.68c0-.22.05-.42.14-.61.1-.19.26-.38.5-.58-.24-.1-.43-.32-.58-.68-.14-.36-.19-.63-.14-.83.05-.19.18-.42.4-.68.22-.26.47-.5.76-.72s.58-.41.86-.58c.29-.17.53-.25.72-.25.33,0,.6.18.79.54.19.36.48.56.86.61.1.05.35.05.76,0,.41-.05.66-.05.76,0,.19.1.52.38.97.86.46.48.73.82.83,1.01-.05,0-.16.04-.32.11-.17.07-.3.16-.4.25l-.07.14v.14s.02.07.07.07l1.51.72c-.1.29-.25.66-.47,1.12-.22.46-.56.71-1.04.76v2.59c-.38.19-.66.48-.83.86-.17.38-.25.77-.25,1.15v.22l.36.36v.36s-.17.12-.36.22c-.19.1-.31.14-.36.14l-.36-.72s-.12.05-.22.14l-.22.22c-.29.53-.62,1.07-1.01,1.62-.38.55-.83,1.07-1.33,1.55s-1.04.86-1.62,1.15c-.58.29-1.22.43-1.94.43h-.36s-.17-.06-.36-.18c-.19-.12-.31-.18-.36-.18-.58,0-1.2.13-1.87.4-.67.26-1.34.4-2.02.4-.38,0-.71-.07-.97-.22-.26-.14-.54-.22-.83-.22h-.22s-.17.12-.36.22c-.19.1-.31.17-.36.22-.05,0-.07.01-.07.04s-.02.04-.07.04c0-.34-.28-.78-.83-1.33-.55-.55-1.17-1.12-1.84-1.69-.67-.58-1.32-1.1-1.94-1.58-.62-.48-1.01-.82-1.15-1.01-.05-.05-.16-.37-.32-.97-.17-.6-.35-1.26-.54-1.98-.19-.72-.35-1.4-.47-2.05-.12-.65-.18-1.07-.18-1.26ZM90.71,20.65c-.14,0-.22.07-.22.22s.07.19.22.14c.1,0,.14-.05.14-.14s-.05-.17-.14-.22ZM95.47,21.01c-.19,0-.29.13-.29.4s.1.4.29.4.29-.13.29-.4-.1-.4-.29-.4ZM100.22,26.63s.02-.07.07-.07c0-.05.05-.11.14-.18.1-.07.17-.13.22-.18v1.15s-.12-.12-.22-.22c-.1-.1-.14-.17-.14-.22l-.07-.14v-.14ZM101.73,16.62c-.19,0-.29.12-.29.36s.1.36.29.36c.24,0,.36-.12.36-.36s-.12-.36-.36-.36ZM107.63,32.46c-.1-.05-.14.01-.14.18s.05.23.14.18c.14-.05.22-.11.22-.18s-.07-.13-.22-.18ZM108.79,8.48c-.29.14-.43.38-.43.72h.43v-.72ZM119.87,21.01c-.19,0-.29.13-.29.4s.1.4.29.4.29-.13.29-.4-.1-.4-.29-.4ZM120.23,50.17c.05-.1-.01-.14-.18-.14s-.23.05-.18.14c.05.14.11.22.18.22s.13-.07.18-.22ZM123.19,21.01l.36-.36h-.36v.36Z"/>
      <path class="cls-1" d="M130.89,46.5s.18-.11.4-.18c.22-.07.35-.13.4-.18v-.14c0-.33-.22-.53-.65-.58-.43-.05-.75-.07-.94-.07,0-.29.05-.6.14-.94.09-.33.19-.62.29-.86-.19.14-.43.07-.72-.22-.14-.14-.26-.31-.36-.5,0-.14-.01-.48-.04-1.01-.03-.53-.04-.86-.04-1.01,0-1.97.46-3.61,1.37-4.93.91-1.32,2.21-2.46,3.89-3.42.58-.33.94-.58,1.08-.72.14-.14.5-.26,1.08-.36.77-.1,1.55-.29,2.34-.58.79-.29,1.57-.58,2.34-.86.77-.29,1.55-.55,2.34-.79s1.6-.36,2.41-.36h.22s.23.13.54.25c.31.12.49.16.54.11.1,0,.35-.17.76-.5.41-.34.66-.53.76-.58.1-.05.3-.11.61-.18.31-.07.67-.14,1.08-.22.41-.07.79-.14,1.15-.22.36-.07.64-.11.83-.11.19-.05.6-.04,1.22.04.62.07,1.06.11,1.3.11,0-.67-.05-1.32-.14-1.94-.1-.62-.14-1.27-.14-1.94,0-.24.01-.42.04-.54.02-.12.13-.3.32-.54l-1.15-1.87c-.14.14-.26.14-.36,0-.48-.29-1.19-.55-2.12-.79-.94-.24-1.94-.43-3.02-.58s-2.12-.25-3.13-.32c-1.01-.07-1.8-.11-2.38-.11-.34,0-.82.01-1.44.04s-1.24.12-1.84.29c-.6.17-1.13.42-1.58.76s-.68.82-.68,1.44v.43c0,.1.06.4.18.9.12.5.18.8.18.9-.1.34-.28.71-.54,1.12-.26.41-.59.78-.97,1.12-.38.34-.78.62-1.19.86-.41.24-.78.36-1.12.36-.38,0-.79-.11-1.22-.32-.43-.22-.83-.48-1.19-.79-.36-.31-.65-.67-.86-1.08-.22-.41-.32-.83-.32-1.26,0-.05.06-.17.18-.36.12-.19.18-.31.18-.36v-.36c0-.1-.06-.35-.18-.76-.12-.41-.18-.66-.18-.76.05-.1.17-.28.36-.54.19-.26.31-.44.36-.54,1.39-2.45,3-4.12,4.82-5,1.82-.89,4.18-1.33,7.06-1.33,1.3,0,2.5.1,3.6.29,1.1.19,2.35.24,3.74.14.38.38.78.5,1.19.36.41-.14.88-.14,1.4,0,1.01.34,1.96.77,2.84,1.3.89.53,1.67,1.14,2.34,1.84.67.7,1.21,1.5,1.62,2.41.41.91.61,1.9.61,2.95l-.22.22c-.1.05-.17.1-.22.14v.36c0,.67.07,1.28.22,1.84.14.55.22,1.19.22,1.91v2.16c-.05.1-.12.23-.22.4-.1.17-.17.3-.22.4v.36s.13.17.25.36c.12.19.18.31.18.36s-.07.17-.22.36c-.14.19-.22.31-.22.36v1.15s.07.17.22.36c.14.19.22.31.22.36,0,.38-.13.82-.4,1.3-.26.48-.4.91-.4,1.3,0,.05.05.12.14.22.1.1.17.14.22.14l-.36.36c0,.1-.01.38-.04.86-.02.48-.04.84-.04,1.08v.68c0,.31.01.62.04.94s.04.59.04.83v.43c0,.1.05.31.14.65.1.34.22.67.36,1.01.14.34.3.64.47.9.17.26.32.4.47.4.29,0,.48-.07.58-.22.1-.14.31-.22.65-.22.48,0,.7.26.65.79.19,0,.35-.1.47-.29.12-.19.29-.41.5-.65s.52-.46.9-.65c.38-.19.94-.29,1.66-.29.43,0,.79.03,1.08.07.29.05.48.41.58,1.08,0,.05-.06.17-.18.36-.12.19-.18.31-.18.36-.14.72-.22,1.29-.22,1.69s-.07.76-.22,1.04c-.14.29-.4.55-.76.79-.36.24-.95.53-1.76.86l-.14.07h-.14s-.07-.02-.07-.07c-.05,0-.12-.05-.22-.14-.1-.1-.14-.17-.14-.22-.29.48-.5.79-.65.94-.14.14-.41.22-.79.22-1.54,0-2.92-.42-4.14-1.26-1.22-.84-1.96-2.03-2.2-3.56h-.29s-.07-.02-.07-.07c-.38,0-.58.11-.58.32s-.17.49-.5.83c0,.05-.02.07-.07.07h-.14l-.22-.07-.14-.14-.22-.22c-.43,0-.78.12-1.04.36-.26.24-.53.49-.79.76s-.56.52-.9.76c-.34.24-.77.36-1.3.36-.05,0-.17-.06-.36-.18-.19-.12-.31-.18-.36-.18-.82,0-1.37.19-1.66.58-.29.38-.72.82-1.3,1.3-1.3-.1-2.54-.06-3.74.11-1.2.17-2.42.25-3.67.25-.29,0-.88-.1-1.76-.29-.89-.19-1.8-.47-2.74-.83-.94-.36-1.78-.77-2.52-1.22-.75-.46-1.12-.97-1.12-1.55v-.22ZM132.04,26.55c-.05.1-.12.14-.22.14s-.14-.05-.14-.14c-.05-.1,0-.14.14-.14s.22.05.22.14ZM133.77,40.95c0,.34.16.75.47,1.22s.68.94,1.12,1.37.89.83,1.37,1.19c.48.36.89.59,1.22.68h2.16c.77,0,1.5-.06,2.2-.18.7-.12,1.4-.18,2.12-.18h.14s.12.05.22.14c.1.1.14.17.14.22.19-.53.43-.89.72-1.08.1.05.35.16.76.32.41.17.66.3.76.4h.14c.1,0,.56-.23,1.4-.68.84-.46,1.74-.96,2.7-1.51.96-.55,2.25-1.31,3.89-2.27v-1.3c0-.53-.13-1-.4-1.4-.26-.41-.4-.8-.4-1.19,0-.24.13-.42.4-.54.26-.12.4-.35.4-.68,0-.82-.07-1.54-.22-2.16-.14-.62-.7-1.03-1.66-1.22-.14,0-.47.04-.97.11s-1.04.18-1.62.32-1.14.29-1.69.43c-.55.14-.97.24-1.26.29-.96.24-2,.6-3.13,1.08-1.13.48-2.17.72-3.13.72-.1,0-.23-.04-.4-.11-.17-.07-.28-.16-.32-.25-.53.38-1.19.78-1.98,1.19-.79.41-1.57.86-2.34,1.37-.77.5-1.43,1.06-1.98,1.66-.55.6-.83,1.29-.83,2.05ZM154.5,39.51c.24,0,.36.12.36.36s-.12.36-.36.36c-.19,0-.29-.12-.29-.36s.1-.36.29-.36ZM159.33,48.37c-.19,0-.29.12-.29.36s.1.36.29.36.29-.12.29-.36-.1-.36-.29-.36ZM160.48,41.39c.19,0,.29.12.29.36s-.1.36-.29.36c-.24,0-.36-.12-.36-.36s.12-.36.36-.36Z"/>
      <path class="cls-1" d="M196.98,51.68c-.1,0-.34.06-.72.18-.38.12-.62.18-.72.18s-.47-.04-1.12-.11c-.65-.07-1.14-.16-1.48-.25-.1,0-.35-.06-.76-.18-.41-.12-.66-.18-.76-.18-.62-.05-1.1-.16-1.44-.32-.34-.17-.64-.35-.9-.54-.26-.19-.49-.35-.68-.47-.19-.12-.46-.18-.79-.18-.38,0-.75.08-1.08.25-.34.17-.65.34-.94.5-.29.17-.59.34-.9.5-.31.17-.64.25-.97.25h-.43c-.1-.05-.34-.16-.72-.32-.38-.17-.62-.3-.72-.4-.29-.82-.49-1.48-.61-1.98-.12-.5-.18-1.09-.18-1.76,0-.1.01-.23.04-.4.02-.17.04-.28.04-.32s.06-.23.18-.54c.12-.31.18-.49.18-.54-.05-.1-.17-.23-.36-.4-.19-.17-.31-.28-.36-.32-.1-.1-.19-.24-.29-.43-.1-.19-.14-.31-.14-.36l1.51-1.44c-.29-.53-.37-1.1-.25-1.73.12-.62-.04-1.15-.47-1.58v-7.06c-.05-.1-.12-.28-.22-.54-.1-.26-.14-.44-.14-.54v-.36c.05-.19.18-.42.4-.68.22-.26.32-.47.32-.61,0-.24-.07-.41-.22-.5-.14-.1-.22-.29-.22-.58,0-.62.07-1.22.22-1.8.14-.58.22-1.18.22-1.8,0-.43-.13-.72-.4-.86-.26-.14-.4-.38-.4-.72v-.14s.02-.07.07-.07l.72-.72v-.36c-.05-.1-.12-.29-.22-.58-.1-.29-.14-.48-.14-.58v-.36s.05-.17.14-.36c.09-.19.17-.31.22-.36v-.22c0-.58-.11-1.21-.32-1.91-.22-.7-.49-1.36-.83-1.98v-.14c0-.29.16-.48.47-.58.31-.1.54-.22.68-.36v-.36c-.1-.1-.29-.35-.58-.76-.29-.41-.48-.66-.58-.76v-.36c.05-.1.17-.23.36-.4.19-.17.33-.28.43-.32-.29-.1-.49-.3-.61-.61-.12-.31-.19-.66-.22-1.04-.02-.38-.01-.78.04-1.19.05-.41.07-.73.07-.97-.1,0-.35.03-.76.07-.41.05-.66.07-.76.07-.05,0-.17-.06-.36-.18-.19-.12-.31-.18-.36-.18s-.18.05-.4.14c-.22.1-.35.17-.4.22h-.36c-.05-.1-.12-.23-.22-.4-.1-.17-.14-.3-.14-.4-.05.29-.24.43-.58.43h-.65c-.86,0-1.68-.19-2.45-.58-.77-.38-1.15-1.08-1.15-2.09,0-.48.16-.88.47-1.19.31-.31.68-.55,1.12-.72.43-.17.88-.26,1.33-.29.46-.02.85-.01,1.19.04-.1-.53-.08-.84.04-.94.12-.1.32-.14.61-.14,1.25,0,2.36.08,3.35.25.98.17,2.1.2,3.35.11-.05.1.11.23.47.4.36.17.76.36,1.19.58.43.22.86.49,1.3.83.43.34.7.72.79,1.15,0,.05-.06.17-.18.36-.12.19-.18.31-.18.36,0,.1.06.34.18.72.12.38.18.62.18.72,0,.05-.06.18-.18.4-.12.22-.18.35-.18.4-.05.1-.07.17-.07.22v.29c0,.38.07.71.22.97.14.26.22.57.22.9v.22c-.1.14-.25.35-.47.61-.22.26-.32.49-.32.68l.07.14.72.72v.43c-.1.1-.29.34-.58.72-.29.38-.48.62-.58.72l.79.72v3.89c.43,0,.78-.13,1.04-.4.26-.26.5-.56.72-.9.22-.33.43-.67.65-1.01.22-.33.52-.6.9-.79.05-.05.17-.01.36.11.19.12.31.2.36.25h.22c.29,0,.55-.08.79-.25.24-.17.47-.34.68-.5.22-.17.44-.34.68-.5.24-.17.53-.25.86-.25,1.1,0,2.35.06,3.74.18,1.39.12,2.64.3,3.74.54.67.19,1.32.59,1.94,1.19.62.6,1.2,1.07,1.73,1.4,1.49,1.06,2.63,2.09,3.42,3.1.79,1.01,1.38,2.06,1.76,3.17.38,1.11.66,2.32.83,3.64.17,1.32.37,2.82.61,4.5,0,.05.05.12.14.22.05.05.12.1.22.14v.22c0,.67-.06,1.39-.18,2.16-.12.77-.3,1.46-.54,2.09v.22c0,.24.07.47.22.68.14.22.22.49.22.83-.24.72-.43,1.3-.58,1.73-.14.43-.34,1.01-.58,1.73-.38.38-.7.85-.94,1.4s-.5,1.14-.79,1.76c-.29.62-.6,1.21-.94,1.76-.34.55-.79,1-1.37,1.33-.62.38-1.24.85-1.84,1.4-.6.55-1.24.95-1.91,1.19h-1.08c-.24,0-.54.08-.9.25-.36.17-.72.35-1.08.54-.36.19-.72.36-1.08.5-.36.14-.64.22-.83.22l-.22-.07s-.16-.18-.32-.4c-.17-.22-.3-.32-.4-.32ZM174.45,5.89h.43v-.36l-.43.36ZM194.03,46.86c.14.05.41.12.79.22.38.1.62.17.72.22.05,0,.17.06.36.18.19.12.31.18.36.18.48-.05,1.15-.25,2.02-.61.86-.36,1.73-.79,2.59-1.3.86-.5,1.63-1.04,2.3-1.62.67-.58,1.08-1.13,1.22-1.66.14-.67.29-1.43.43-2.27.14-.84.36-1.57.65-2.2.05-.05.18-.22.4-.5.22-.29.32-.48.32-.58s-.11-.23-.32-.4c-.22-.17-.35-.28-.4-.32v-.36c.05-.09.12-.29.22-.58.1-.29.14-.48.14-.58s-.1-.33-.29-.72c-.19-.38-.34-.62-.43-.72.19-.24.44-.47.76-.68.31-.22.56-.37.76-.47-.1-.1-.29-.28-.58-.54s-.48-.44-.58-.54v-.22c0-.24.07-.42.22-.54.14-.12.22-.37.22-.76,0-.77-.26-1.7-.79-2.81-.53-1.1-1.2-2.16-2.02-3.17-.82-1.01-1.7-1.87-2.66-2.59-.96-.72-1.87-1.08-2.74-1.08v1.01c-.14,0-.5-.05-1.08-.14-.58-.1-.94-.12-1.08-.07-.1.05-.35.18-.76.4-.41.22-.66.35-.76.4h-.29c-.53,0-1.03-.14-1.51-.43l-1.87,1.87-.72-.36c-.1.38-.23.71-.4.97-.17.26-.35.52-.54.76-.19.24-.37.5-.54.79-.17.29-.3.67-.4,1.15,0,.1.01.29.04.58.02.29.01.48-.04.58-.1.19-.28.46-.54.79-.26.34-.56.67-.9,1.01-.34.34-.62.66-.86.97-.24.31-.36.52-.36.61.05,0,.12-.01.22-.04.1-.02.17-.04.22-.04.05-.05.17-.12.36-.22.19-.1.33-.14.43-.14.24,0,.36.12.36.36v.5c0,.62-.19,1.21-.58,1.76-.38.55-.58,1.09-.58,1.62,0,.14.02.47.07.97s.11,1.06.18,1.66c.07.6.16,1.17.25,1.69.1.53.19.86.29,1.01.05.1.22.23.5.4.29.17.48.28.58.32.05.05.12.17.22.36.1.19.14.34.14.43.1.38.08.64-.04.76s.01.35.4.68c.1.1.35.28.76.54.41.26.66.44.76.54.1.14.3.4.61.76.31.36.64.73.97,1.12.38.48.82.98,1.3,1.51.24,0,.46-.07.65-.22.19-.14.43-.22.72-.22h.14ZM185.9,28.43c-.19,0-.29.12-.29.36s.1.36.29.36c.24,0,.36-.12.36-.36s-.12-.36-.36-.36ZM187.05,48.73h.36v-.36h-.36v.36ZM193.67,49.38c-.34,0-.58.14-.72.43h.72v-.43ZM193.67,19.21v-.36h-.36l.36.36ZM196.98,18.49c-.19,0-.29.12-.29.36s.1.36.29.36.29-.12.29-.36-.1-.36-.29-.36ZM201.45,19.57c-.19,0-.29.12-.29.36s.1.36.29.36.29-.12.29-.36-.1-.36-.29-.36ZM206.2,48.01l.43-.36-.43-.36-.36.36.36.36ZM207.71,28.43c-.1-.05-.14.01-.14.18s.05.23.14.18c.1-.05.14-.11.14-.18s-.05-.13-.14-.18Z"/>
      <path class="cls-1" d="M217.29,49.67c0-.67.11-1.18.32-1.51.22-.33.5-.59.86-.76.36-.17.76-.3,1.19-.4.43-.1.86-.26,1.3-.5.33-.14.56-.28.68-.4s.22-.2.29-.25.16-.08.25-.11c.1-.02.26-.04.5-.04s.43.06.58.18c.14.12.28.26.4.43.12.17.24.31.36.43.12.12.28.18.47.18.43,0,.66-.28.68-.83.02-.55.04-.9.04-1.04h1.08c0-.34-.05-.61-.14-.83-.1-.22-.21-.41-.32-.58-.12-.17-.23-.36-.32-.58-.1-.22-.14-.51-.14-.9,0-.58.13-1.07.4-1.48.26-.41.4-.88.4-1.4,0-.62-.12-1.27-.36-1.94-.24-.67-.36-1.32-.36-1.94,0-.05.06-.23.18-.54.12-.31.18-.49.18-.54s.01-.2.04-.47c.02-.26.04-.47.04-.61,0-.53-.08-1.01-.25-1.44-.17-.43-.25-.89-.25-1.37,0-.33.07-.54.22-.61.14-.07.22-.23.22-.47,0-.19-.05-.5-.14-.94-.1-.43-.19-.89-.29-1.37-.1-.48-.18-.9-.25-1.26-.07-.36-.08-.59-.04-.68.05-.1.23-.29.54-.58.31-.29.49-.48.54-.58.05-.05.05-.1,0-.14-.05-.05-.07-.1-.07-.14-.05,0-.1-.01-.14-.04-.05-.02-.1-.04-.14-.04-.05.05-.17.11-.36.18-.19.07-.31.13-.36.18-.05-.1-.14-.26-.29-.5-.14-.24-.31-.49-.5-.76-.19-.26-.37-.49-.54-.68-.17-.19-.28-.29-.32-.29-.24,0-.4.07-.47.22s-.23.22-.47.22h-.36c-.1-.05-.35-.18-.76-.4-.41-.22-.66-.35-.76-.4h-.36s-.05.12-.14.22-.17.17-.22.22h-.22c-.43,0-.6-.2-.5-.61.1-.41.14-.73.14-.97-.38,0-.59.02-.61.07s-.25-.07-.68-.36v1.44c-.48.05-.85-.11-1.12-.47-.26-.36-.44-.8-.54-1.33-.1-.53-.16-1.06-.18-1.58-.03-.53-.04-.96-.04-1.3.48,0,.97-.08,1.48-.25.5-.17,1-.35,1.48-.54.48-.19.97-.37,1.48-.54.5-.17,1.02-.25,1.55-.25.38,0,.68.06.9.18.22.12.47.18.76.18h.14c.1,0,.35-.06.76-.18.41-.12.66-.18.76-.18.05,0,.17.06.36.18.19.12.31.18.36.18.14,0,.37.03.68.07.31.05.64.1.97.14.33.05.66.1.97.14.31.05.54.07.68.07.14-.24.38-.42.72-.54.33-.12.6-.2.79-.25-.05.19-.03.64.07,1.33.09.7.24,1.42.43,2.16.19.74.42,1.4.68,1.98s.54.86.83.86h.14s.07-.02.07-.07c.1-.1.34-.32.72-.68.38-.36.62-.61.72-.76.29-.34.95-.79,1.98-1.37s2.17-1.15,3.42-1.73c1.25-.58,2.46-1.07,3.64-1.48,1.18-.41,2.05-.61,2.63-.61.05,0,.22.07.5.22.29.14.59.31.9.5.31.19.6.37.86.54.26.17.42.25.47.25.14-.24.38-.42.72-.54.33-.12.6-.2.79-.25.48.67,1.08,1.26,1.8,1.76s1.4,1.02,2.05,1.55c.65.53,1.21,1.13,1.69,1.8.48.67.72,1.51.72,2.52v.14s-.18.17-.4.36c-.22.19-.32.31-.32.36,0,.1.12.35.36.76.24.41.36.66.36.76-.05.19-.19.46-.43.79-.24.34-.52.66-.83.97s-.65.59-1.01.83c-.36.24-.66.36-.9.36h-.14s-.18-.12-.4-.22c-.22-.1-.35-.14-.4-.14l-.14-.07s-.07.01-.07.04-.02.04-.07.04h-.07s-.16.18-.32.4c-.17.22-.3.32-.4.32s-.34-.12-.72-.36c-.38-.24-.62-.36-.72-.36-.19-.1-.41-.14-.65-.14,0-.53-.19-.98-.58-1.37-.38-.38-.6-.86-.65-1.44v-.79c0-.38.01-.79.04-1.22.02-.43.05-.85.07-1.26.02-.41.04-.68.04-.83h-4.18c-.1.1-.29.24-.58.43-.29.19-.48.31-.58.36-.1,0-.35-.01-.76-.04-.41-.02-.64-.01-.68.04-.05,0-.17.1-.36.29s-.38.4-.58.61c-.19.22-.38.41-.58.58-.19.17-.31.28-.36.32-.82.67-1.58,1.28-2.3,1.84s-1.44,1.19-2.16,1.91v.36c-.1.43-.35.9-.76,1.4-.41.5-.83,1.02-1.26,1.55-.43.53-.82,1.06-1.15,1.58-.34.53-.5,1.03-.5,1.51v.22s.02.18.07.4c.05.22.1.46.14.72.05.26.08.5.11.72.02.22.04.35.04.4,0,.48-.11,1.03-.32,1.66-.22.62-.32,1.18-.32,1.66h.72c0,.82-.05,1.72-.14,2.7-.1.98-.19,1.81-.29,2.48-.19.1-.4.19-.61.29-.22.1-.37.24-.47.43.43.05.9.24,1.4.58.5.34.95.5,1.33.5.29,0,.56-.06.83-.18.26-.12.56-.18.9-.18.38,0,.74.13,1.08.4.34.26.72.4,1.15.4.48,0,.7-.26.65-.79.19.1.62.23,1.3.4.67.17,1.1.28,1.3.32h.36s.18-.06.4-.18.35-.18.4-.18c.96.19,1.55.58,1.76,1.15.22.58.35,1.3.4,2.16-.24.38-.52.6-.83.65-.31.05-.52.34-.61.86h-3.67c-.1,0-.41-.06-.94-.18-.53-.12-.84-.18-.94-.18s-.29.06-.58.18c-.29.12-.46.18-.5.18h-4.46c-.34.33-.9.54-1.69.61-.79.07-1.4.11-1.84.11h-.14c-.1,0-.29-.06-.58-.18-.29-.12-.48-.18-.58-.18s-.29.02-.58.07-.59.08-.9.11c-.31.02-.62.06-.94.11-.31.05-.49.07-.54.07s-.34.01-.86.04c-.53.02-.91.04-1.15.04-.34,0-.74-.04-1.22-.11-.48-.07-.95-.19-1.4-.36-.46-.17-.84-.41-1.15-.72-.31-.31-.47-.73-.47-1.26ZM222.11,19.57l.36-.36-.36-.36v.72ZM222.11,20.65h.72s-.05-.11-.14-.18c-.1-.07-.17-.13-.22-.18h-.36v.36ZM222.83,23.96c.09.05.14.11.14.18s-.05.13-.14.18c-.1.1-.14.05-.14-.14s.05-.26.14-.22ZM225.78,52.04c.19,0,.29.12.29.36s-.1.36-.29.36-.29-.12-.29-.36.1-.36.29-.36ZM226.14,19.57s-.11.05-.18.14c-.07.1-.13.17-.18.22v.36s.12-.05.22-.14c.09-.1.14-.17.14-.22v-.07s.01-.07.04-.07.04-.02.04-.07l-.07-.14ZM239.82,24.32c.19,0,.29.13.29.4s-.1.4-.29.4-.29-.13-.29-.4.1-.4.29-.4ZM246.45,25.83c.19,0,.29.12.29.36s-.1.36-.29.36-.29-.12-.29-.36.1-.36.29-.36ZM247.24,22.16l-.43.36v-.72l.43.36ZM247.24,24.75c.19,0,.29.12.29.36s-.1.36-.29.36c-.24,0-.36-.12-.36-.36s.12-.36.36-.36Z"/>
      <path class="cls-1" d="M268.55,46.86s-.05.12-.14.22-.17.14-.22.14l-.14.07c-.38,0-.68-.43-.9-1.3-.22-.86-.37-1.84-.47-2.92-.1-1.08-.17-2.08-.22-2.99-.05-.91-.07-1.44-.07-1.58,0-.29.06-.53.18-.72.12-.19.18-.43.18-.72v-.14s-.18-.17-.4-.36c-.22-.19-.35-.31-.4-.36,0-.05.06-.18.18-.4.12-.22.2-.35.25-.4v-.36s-.12-.23-.22-.54c-.1-.31-.17-.49-.22-.54v-.22c0-.53.05-.97.14-1.33.1-.36.14-.88.14-1.55-.24,0-.44.04-.61.11-.17.07-.3-.04-.4-.32.33,0,.59-.22.76-.65.17-.43.29-.92.36-1.48.07-.55.1-1.1.07-1.66-.02-.55-.04-.92-.04-1.12.05-.53.05-1.01,0-1.44-.05-.38-.13-.72-.25-1.01-.12-.29-.3-.43-.54-.43-.05,0-.17.06-.36.18-.19.12-.31.18-.36.18,0,.05-.02.07-.07.07h-.14s-.1-.02-.14-.07c-.29-.24-.52-.47-.68-.68-.17-.22-.44-.35-.83-.4-.53-.05-1.12-.05-1.76,0-.65.05-1.17-.22-1.55-.79.09-1.82.46-3.2,1.08-4.14.62-.94,1.92-1.4,3.89-1.4,1.78,0,3.05.04,3.82.11.77.07,1.33.28,1.69.61.36.34.7.82,1.01,1.44.31.62.92,1.51,1.84,2.66-.1.05-.29.16-.58.32-.29.17-.48.3-.58.4v.22c0,.29.07.57.22.83.14.26.22.57.22.9,0,.24-.07.38-.22.43-.14.05-.22.19-.22.43v.14c.05.1.13.24.25.43.12.19.18.31.18.36-.05.1-.18.34-.4.72-.22.38-.35.62-.4.72-.1.48.08.8.54.97.46.17.83.25,1.12.25,0,.58-.22,1.27-.65,2.09-.43.82-.65,1.56-.65,2.23,0,.19.01.34.04.43.02.1.16.19.4.29,0,.14.01.41.04.79.02.38.04.62.04.72,0,.67-.14,1.17-.43,1.48-.29.31-.43.73-.43,1.26v.22c.05.1.12.29.22.58.1.29.14.46.14.5,0,.14.01.42.04.83.02.41.04.83.04,1.26s-.01.84-.04,1.22c-.02.38-.04.65-.04.79.33.14.55.29.65.43.1.14.16.3.18.47.02.17.05.36.07.58.02.22.11.47.25.76,0,.05.11.11.32.18.22.07.35.13.4.18.48.29.82.58,1.01.86.19.29.37.53.54.72.17.19.4.35.68.47.29.12.77.18,1.44.18.1,0,.35-.01.76-.04.41-.02.66-.04.76-.04.14-.29.46-.46.94-.5.48-.05.79-.12.94-.22.48-.29.84-.55,1.08-.79s.44-.49.61-.76c.17-.26.34-.54.5-.83.17-.29.42-.6.76-.94.1-.1.37-.34.83-.72.46-.38.78-.62.97-.72.53-.38,1.05-.89,1.58-1.51.53-.62,1.02-1.3,1.48-2.02.46-.72.84-1.44,1.15-2.16.31-.72.52-1.42.61-2.09,0-.05-.06-.17-.18-.36-.12-.19-.18-.31-.18-.36-.05,0-.07-.02-.07-.07v-.29s.02-.07.07-.07c.05-.1.16-.23.32-.4s.3-.28.4-.32c-.38-.58-.61-1.06-.68-1.44-.07-.38-.11-.86-.11-1.44,0-.53.07-.96.22-1.3.14-.33.22-.74.22-1.22v-.5c-.1-.1-.34-.19-.72-.29-.38-.1-.65-.12-.79-.07,0-.05-.01-.08-.04-.11-.03-.02-.04-.06-.04-.11l.07-.14c.1-.1.29-.18.58-.25.29-.07.48-.11.58-.11v-1.87l-.29-.14c-.1-.05-.18-.08-.25-.11-.07-.02-.13-.06-.18-.11-.29-.09-.75-.2-1.37-.32-.62-.12-1.24-.25-1.84-.4-.6-.14-1.14-.31-1.62-.5-.48-.19-.72-.41-.72-.65,0-.05.06-.23.18-.54.12-.31.18-.49.18-.54,0-.1-.07-.41-.22-.94-.14-.53-.19-.84-.14-.94.1-.34.35-.67.76-1.01.41-.33.88-.61,1.4-.83.53-.22,1.05-.4,1.58-.54.53-.14.94-.22,1.22-.22h.14c.1.05.41.12.94.22.53.1.84.17.94.22h.72c.1-.05.35-.19.76-.43.41-.24.66-.36.76-.36.72,0,1.34.3,1.87.9.53.6.96,1.32,1.3,2.16.33.84.58,1.71.72,2.59.14.89.22,1.6.22,2.12,0,.43-.14.79-.43,1.08.1,1.83.05,3.59-.14,5.29-.19,1.71-.29,3.47-.29,5.29,0,.38.01.91.04,1.58.02.67.04,1.06.04,1.15s.07.34.22.72c.14.38.19.62.14.72,0,.1-.1.24-.29.43s-.34.31-.43.36v2.95c.24.05.36.21.36.47v.61c0,.48-.05.94-.14,1.37-.1.43-.14.91-.14,1.44.05,0,.1.02.14.07.05.1.1.12.14.07.05-.05.12-.17.22-.36.09-.19.14-.31.14-.36.14.38.53.65,1.15.79.62.14,1.26.31,1.91.5.65.19,1.24.47,1.76.83.53.36.79.95.79,1.76,0,1.15-.44,1.91-1.33,2.27-.89.36-1.81.54-2.77.54-.67,0-1.3-.07-1.87-.22-.58-.14-1.2-.22-1.87-.22h-.72l-.36.72c-.05-.1-.16-.23-.32-.4-.17-.17-.3-.28-.4-.32-.05,0-.18.01-.4.04-.22.02-.35.01-.4-.04-.43-.29-.66-.71-.68-1.26-.03-.55-.03-1.12,0-1.69.02-.58-.04-1.1-.18-1.58-.14-.48-.58-.82-1.3-1.01.05,0,.17-.05.36-.14.19-.1.31-.17.36-.22v-.36s-.11-.12-.18-.22c-.07-.1-.13-.14-.18-.14-.48.62-1.16,1.24-2.05,1.84-.89.6-1.69.97-2.41,1.12.14.53.07.95-.22,1.26-.29.31-.65.59-1.08.83-.43.24-.88.48-1.33.72-.46.24-.8.53-1.04.86h-2.95l-.36.72s-.18.01-.4.04-.4.04-.54.04c-.48,0-.82-.04-1.01-.11-.19-.07-.36-.17-.5-.29-.14-.12-.3-.24-.47-.36-.17-.12-.42-.25-.76-.4-.1-.05-.35-.06-.76-.04-.41.02-.66.04-.76.04-.62-.14-1.2-.47-1.73-.97s-1.01-1.04-1.44-1.62c-.43-.58-.77-1.09-1.01-1.55-.24-.46-.38-.68-.43-.68h-.22ZM261.57,20.65s.12-.16.22-.32c.1-.17.14-.3.14-.4s-.05-.18-.14-.25c-.1-.07-.17-.11-.22-.11v1.08ZM284.1,51.32c.19,0,.29.12.29.36s-.1.36-.29.36-.29-.12-.29-.36.1-.36.29-.36Z"/>
      <path class="cls-1" d="M307.29,36.56c0-.29.07-.54.22-.76.14-.22.22-.47.22-.76,0-.33-.08-.62-.25-.86s-.36-.47-.58-.68c-.22-.22-.4-.46-.54-.72-.14-.26-.19-.61-.14-1.04.05-.1.18-.28.4-.54.22-.26.35-.44.4-.54v-2.59c0-.19.1-.56.29-1.12.19-.55.33-.92.43-1.12,0-.05.12-.17.36-.36.24-.19.36-.31.36-.36.05-.1.05-.41,0-.94-.05-.53-.05-.84,0-.94.05-.1.23-.29.54-.58.31-.29.51-.46.61-.5.05-.1.16-.28.32-.54.17-.26.3-.47.4-.61.58-1.01,1.36-1.92,2.34-2.74.98-.82,2.05-1.51,3.2-2.09,1.15-.58,2.35-1.02,3.6-1.33,1.25-.31,2.45-.47,3.6-.47h.14c1.97.38,3.82.79,5.54,1.22,1.73.43,3.46,1.13,5.18,2.09.34.19.77.56,1.3,1.12.53.55,1.05,1.13,1.58,1.73.53.6,1.01,1.13,1.44,1.58.43.46.72.71.86.76.1.05.23.03.4-.07.17-.1.28-.19.32-.29-.34.34-.54.58-.61.72-.07.14-.11.38-.11.72,0,.43.06.86.18,1.3.12.43.18.86.18,1.3s-.08.94-.25,1.51-.41,1.12-.72,1.62c-.31.5-.68.92-1.12,1.26-.43.34-.89.5-1.37.5-1.25,0-2.39-.47-3.42-1.4-1.03-.94-1.81-1.96-2.34-3.06.05-.1.13-.28.25-.54.12-.26.24-.54.36-.83.12-.29.23-.58.32-.86.1-.29.14-.48.14-.58,0-.86-.28-1.51-.83-1.94s-1.21-.73-1.98-.9c-.77-.17-1.57-.26-2.41-.29-.84-.02-1.55-.04-2.12-.04-2.59,0-4.71.78-6.34,2.34-1.63,1.56-2.86,3.49-3.67,5.8-.05.1-.18.41-.4.94-.22.53-.32.84-.32.94v.72c0,.1.02.29.07.58s.08.59.11.9c.02.31.06.62.11.94.05.31.07.49.07.54s-.06.17-.18.36c-.12.19-.18.31-.18.36,0,1.25.16,2.35.47,3.31.31.96.76,1.97,1.33,3.02.05.05.12.11.22.18.1.07.17.13.22.18.19.14.38.38.58.72.19.34.38.68.58,1.04.19.36.4.7.61,1.01.22.31.47.49.76.54.91.24,1.86.49,2.84.76.98.26,1.91.4,2.77.4.58,0,1.33-.1,2.27-.29.94-.19,1.88-.47,2.84-.83.96-.36,1.85-.76,2.66-1.19.82-.43,1.42-.91,1.8-1.44.53-.67.92-1.26,1.19-1.76.26-.5.73-1.02,1.4-1.55.1-.05.34-.07.72-.07h.72c.29,0,.64.04,1.04.11.41.07.79.19,1.15.36.36.17.68.37.97.61s.46.53.5.86c.14.58-.14,1.31-.86,2.2-.72.89-1.56,1.79-2.52,2.7-.96.91-1.94,1.73-2.95,2.45s-1.73,1.22-2.16,1.51c-.67.38-1.49.58-2.45.58s-1.85.05-2.66.14c-.62.1-1.17.36-1.62.79-.46.43-1.02.65-1.69.65s-1.31-.14-1.91-.43c-.6-.29-1.21-.5-1.84-.65-.05-.05-.23-.06-.54-.04-.31.02-.49.04-.54.04-.24-.1-.7-.23-1.37-.4-.67-.17-1.08-.28-1.22-.32-.05-.05-.16-.17-.32-.36-.17-.19-.3-.33-.4-.43-.24-.34-.54-.58-.9-.72-.36-.14-.73-.29-1.12-.43-.38-.14-.76-.31-1.12-.5-.36-.19-.68-.48-.97-.86-.05-.1-.11-.35-.18-.76-.07-.41-.13-.66-.18-.76,0-.1-.05-.23-.14-.4-.1-.17-.17-.28-.22-.32-.58-.62-1-1.07-1.26-1.33-.26-.26-.44-.53-.54-.79-.1-.26-.16-.58-.18-.94-.02-.36-.11-.95-.25-1.76l-.14-.14-.22-.22c-.43-.29-.73-.77-.9-1.44-.17-.67-.25-1.3-.25-1.87ZM316.21,23.24c-.19,0-.29.12-.29.36s.1.36.29.36.29-.12.29-.36-.1-.36-.29-.36ZM317.29,20.29c-.1-.05-.14.08-.14.4s.05.42.14.32c.1-.05.14-.16.14-.32s-.05-.3-.14-.4ZM318.81,20.65h.36v-.36h-.36v.36ZM320.61,18.85c-.29.14-.43.41-.43.79.34,0,.62-.14.86-.43l-.43-.36Z"/>
      <path class="cls-1" d="M345.37,35.84c0-.09.06-.29.18-.58.12-.29.18-.48.18-.58,0-.05-.05-.16-.14-.32-.1-.17-.17-.3-.22-.4l-.36-.36v-.22c0-.24.05-.54.14-.9.1-.36.29-.61.58-.76-.24-.05-.42-.22-.54-.5-.12-.29-.21-.59-.25-.9-.05-.31-.06-.64-.04-.97.02-.33.04-.62.04-.86v-.5c0-.1.02-.19.07-.29,0-.1.11-.23.32-.4.22-.17.35-.28.4-.32v-1.87s.05-.12.14-.22.17-.14.22-.14c.24-.38.42-.8.54-1.26.12-.46.23-.91.32-1.37.1-.46.22-.9.36-1.33.14-.43.36-.84.65-1.22.62-.86,1.43-1.72,2.41-2.56.98-.84,2.04-1.58,3.17-2.23s2.29-1.18,3.49-1.58c1.2-.41,2.35-.61,3.46-.61h.36c.1,0,.35.05.76.14.41.1.66.17.76.22.05,0,.24.01.58.04.33.02.68.06,1.04.11.36.05.71.08,1.04.11.33.02.55.06.65.11.09,0,.33.17.72.5.38.34.62.53.72.58.05,0,.18.02.4.07.22.05.46.08.72.11.26.02.5.06.72.11.22.05.35.07.4.07.1.05.23.18.4.4.17.22.28.35.32.4.1.05.23.11.4.18.17.07.28.13.32.18.19.14.5.42.94.83.43.41.88.85,1.33,1.33.46.48.9.92,1.33,1.33.43.41.72.71.86.9.19.24.48.78.86,1.62.38.84.77,1.74,1.15,2.7.38.96.71,1.88.97,2.77.26.89.4,1.5.4,1.84,0,.29-.05.68-.14,1.19-.1.5-.24,1-.43,1.48-.19.48-.44.89-.76,1.22-.31.34-.68.5-1.12.5-.62,0-1.24-.07-1.84-.22-.6-.14-1.24-.22-1.91-.22-.53,0-1.02.07-1.48.22-.46.14-.92.22-1.4.22h-.22c-.1,0-.26-.02-.5-.07-.24-.05-.5-.1-.79-.14-.29-.05-.57-.08-.83-.11-.26-.02-.42-.04-.47-.04h-.43c-.24,0-.42.03-.54.07-.12.05-.16.26-.11.65-.1-.29-.25-.41-.47-.36-.22.05-.44.05-.68,0-.1-.05-.4-.12-.9-.22-.5-.1-.8-.14-.9-.14s-.26.01-.5.04c-.24.02-.5.06-.79.11-.29.05-.57.1-.83.14-.26.05-.42.07-.47.07h-1.87c.09.43,0,.67-.29.72-.29.05-.53.07-.72.07-.53,0-.95-.08-1.26-.25-.31-.17-.73-.25-1.26-.25-.58,0-1.12.06-1.62.18-.5.12-1.07.18-1.69.18,0,.05-.02.18-.07.4-.05.22-.07.44-.07.68s.04.46.11.65c.07.19.23.29.47.29,0,.91.08,1.84.25,2.77.17.94.37,1.84.61,2.7.24-.14.47-.17.68-.07.22.1.43.25.65.47.22.22.42.43.61.65.19.22.41.35.65.4.43.1.83.16,1.19.18.36.02.68.07.97.14.29.07.55.23.79.47.24.24.48.6.72,1.08h4.46c.29,0,.52-.07.68-.22.17-.14.35-.3.54-.47.19-.17.38-.32.58-.47.19-.14.46-.22.79-.22v.65c.33-.14.68-.36,1.04-.65.36-.29.72-.58,1.08-.86s.73-.52,1.12-.68c.38-.17.77-.18,1.15-.04.91-.62,1.7-1.22,2.38-1.8.67-.58,1.56-.86,2.66-.86.53,0,1.12.11,1.76.32.65.22.97.68.97,1.4s-.5,1.6-1.51,2.63c-1.01,1.03-2.2,2.03-3.56,2.99-1.37.96-2.72,1.78-4.07,2.45-1.34.67-2.35,1.01-3.02,1.01-.1,0-.17-.07-.22-.22-.05-.05-.1-.12-.14-.22h-.5c-.72,0-1.37.19-1.94.58-.58.38-1.18.58-1.8.58h-.58c-.1-.05-.29-.18-.58-.4s-.46-.32-.5-.32c-.53-.14-.94-.2-1.22-.18-.29.02-.55.06-.79.11-.24.05-.48.06-.72.04-.24-.02-.58-.16-1.01-.4-1.68-.82-3.13-1.78-4.36-2.88-1.22-1.1-2.46-2.35-3.71-3.74-.14-.14-.36-.58-.65-1.3-.29-.72-.58-1.5-.86-2.34-.29-.84-.54-1.62-.76-2.34-.22-.72-.32-1.13-.32-1.22v-.14ZM365.32,28.79c0,.14.12.26.36.36h.14c.53,0,1.04-.12,1.55-.36.5-.24,1.02-.36,1.55-.36.38,0,.73.06,1.04.18.31.12.66.18,1.04.18h.22l.72-.36.72-.36c-.1-.05-.24-.16-.43-.32-.19-.17-.29-.3-.29-.4-.05-.05,0-.18.14-.4.14-.22.22-.35.22-.4-.1-.62-.42-1.36-.97-2.2s-1.2-1.64-1.94-2.41c-.74-.77-1.52-1.44-2.34-2.02-.82-.58-1.54-.94-2.16-1.08h-.72c-.1-.05-.28-.24-.54-.58-.26-.33-.44-.53-.54-.58h-.36c-.58,0-1.11.19-1.58.58-.48.38-1.01.58-1.58.58h-.14l-.22-.22c-.1-.09-.17-.14-.22-.14l-.14-.07c-.29,0-.72.23-1.3.68s-1.16,1.01-1.76,1.66c-.6.65-1.12,1.31-1.55,1.98-.43.67-.65,1.2-.65,1.58-.05,0-.13.01-.25.04-.12.02-.21.04-.25.04-.05-.05-.17-.12-.36-.22-.19-.1-.31-.17-.36-.22h-.36c.1.1.19.23.29.4.1.17.12.3.07.4,0,.05-.12.16-.36.32-.24.17-.36.3-.36.4,0,.05-.01.18-.04.4-.03.22-.04.37-.04.47v.79c0,.29.14.48.43.58.05.05.17.07.36.07h.22v-1.58c.05.53.14.9.29,1.12.14.22.32.37.54.47.22.1.46.18.72.25.26.07.54.21.83.4h5.18s.05-.12.14-.22.17-.14.22-.14h.36c.1,0,.29.06.58.18.29.12.46.18.5.18.24.1.54.18.9.25.36.07.56.11.61.11.1,0,.33-.04.72-.11.38-.07.62-.16.72-.25.05,0,.12-.06.22-.18.1-.12.17-.18.22-.18l.14-.07s.08.01.11.04c.02.02.06.04.11.04-.1.05-.18.16-.25.32-.07.17-.11.3-.11.4ZM352,33.25c-.19,0-.29.12-.29.36s.1.36.29.36.29-.12.29-.36-.1-.36-.29-.36ZM353.08,38.36c.19,0,.29.13.29.4s-.1.4-.29.4-.29-.13-.29-.4.1-.4.29-.4ZM361.57,33.97l-.72.72v-.72h.72ZM376.33,32.46c-.19,0-.29.13-.29.4s.1.4.29.4c.24,0,.36-.13.36-.4s-.12-.4-.36-.4Z"/>
    </g>
  </g>
</svg>