<?xml version="1.0" encoding="utf-8"?>
<!-- Generator: Adobe Illustrator 28.1.0, SVG Export Plug-In . SVG Version: 6.00 Build 0)  -->
<svg version="1.1" id="Layer_1" xmlns="http://www.w3.org/2000/svg" xmlns:xlink="http://www.w3.org/1999/xlink" x="0px" y="0px"
	 viewBox="0 0 27.3 28" style="enable-background:new 0 0 27.3 28;" xml:space="preserve">
<style type="text/css">
	.st0{fill:#FFFFFF;}
</style>
<path class="st0" d="M24.9,6.2c-3-4.2-7.9-6.3-12.7-5.7l6.1,8.7c0.3,0.4,0.8,0.4,1.1,0L20.1,8v6.8l-9.8-14c-1.6,0.4-3.1,1.1-4.5,2
	c-6.2,4.3-7.7,12.8-3.4,19c3,4.3,8.1,6.4,13,5.7l-6.4-9.2C8.8,18,8.3,18,8,18.4l-0.8,1.2v-6.8l10.1,14.4c1.5-0.4,2.9-1.1,4.2-2
	C27.7,20.9,29.2,12.3,24.9,6.2z"/>
</svg>
